<svg width="383" height="820" viewBox="0 0 383 820" fill="none" xmlns="http://www.w3.org/2000/svg">
<g filter="url(#filter0_d_583_153)">
<path d="M144.841 394.218H134.528V365.127H144.926C147.852 365.127 150.371 365.709 152.483 366.874C154.595 368.029 156.219 369.691 157.355 371.86C158.501 374.028 159.074 376.623 159.074 379.644C159.074 382.674 158.501 385.278 157.355 387.456C156.219 389.634 154.585 391.306 152.455 392.471C150.333 393.635 147.795 394.218 144.841 394.218ZM140.679 388.948H144.585C146.403 388.948 147.933 388.626 149.173 387.982C150.423 387.329 151.361 386.32 151.986 384.956C152.62 383.583 152.938 381.812 152.938 379.644C152.938 377.494 152.62 375.738 151.986 374.374C151.361 373.01 150.428 372.007 149.188 371.363C147.947 370.719 146.418 370.397 144.599 370.397H140.679V388.948ZM163.63 394.218V365.127H182.891V370.198H169.781V377.13H181.613V382.201H169.781V394.218H163.63ZM187.028 394.218V365.127H198.506C200.712 365.127 202.592 365.548 204.145 366.391C205.698 367.224 206.882 368.384 207.696 369.871C208.52 371.348 208.932 373.053 208.932 374.985C208.932 376.917 208.515 378.621 207.682 380.098C206.848 381.576 205.641 382.726 204.06 383.55C202.488 384.374 200.584 384.786 198.349 384.786H191.034V379.857H197.355C198.539 379.857 199.514 379.653 200.281 379.246C201.058 378.83 201.635 378.257 202.014 377.527C202.402 376.789 202.597 375.941 202.597 374.985C202.597 374.019 202.402 373.176 202.014 372.456C201.635 371.727 201.058 371.164 200.281 370.766C199.505 370.359 198.52 370.155 197.327 370.155H193.179V394.218H187.028ZM214.983 394.587C214.045 394.587 213.241 394.256 212.568 393.593C211.905 392.92 211.574 392.116 211.574 391.178C211.574 390.25 211.905 389.455 212.568 388.792C213.241 388.129 214.045 387.797 214.983 387.797C215.892 387.797 216.688 388.129 217.369 388.792C218.051 389.455 218.392 390.25 218.392 391.178C218.392 391.803 218.231 392.376 217.909 392.897C217.597 393.408 217.185 393.82 216.673 394.133C216.162 394.436 215.598 394.587 214.983 394.587ZM233.786 394.218H223.474V365.127H233.871C236.798 365.127 239.317 365.709 241.428 366.874C243.54 368.029 245.164 369.691 246.3 371.86C247.446 374.028 248.019 376.623 248.019 379.644C248.019 382.674 247.446 385.278 246.3 387.456C245.164 389.634 243.531 391.306 241.4 392.471C239.279 393.635 236.741 394.218 233.786 394.218ZM229.624 388.948H233.531C235.349 388.948 236.878 388.626 238.119 387.982C239.369 387.329 240.306 386.32 240.931 384.956C241.566 383.583 241.883 381.812 241.883 379.644C241.883 377.494 241.566 375.738 240.931 374.374C240.306 373.01 239.373 372.007 238.133 371.363C236.892 370.719 235.363 370.397 233.545 370.397H229.624V388.948Z" fill="white"/>
<rect x="126.938" y="447.123" width="131" height="10" rx="5" transform="rotate(-15 126.938 447.123)" fill="white"/>
</g>
<defs>
<filter id="filter0_d_583_153" x="0" y="0" width="383" height="820" filterUnits="userSpaceOnUse" color-interpolation-filters="sRGB">
<feFlood flood-opacity="0" result="BackgroundImageFix"/>
<feColorMatrix in="SourceAlpha" type="matrix" values="0 0 0 0 0 0 0 0 0 0 0 0 0 0 0 0 0 0 127 0" result="hardAlpha"/>
<feOffset dy="4"/>
<feGaussianBlur stdDeviation="2"/>
<feComposite in2="hardAlpha" operator="out"/>
<feColorMatrix type="matrix" values="0 0 0 0 0 0 0 0 0 0 0 0 0 0 0 0 0 0 0.25 0"/>
<feBlend mode="normal" in2="BackgroundImageFix" result="effect1_dropShadow_583_153"/>
<feBlend mode="normal" in="SourceGraphic" in2="effect1_dropShadow_583_153" result="shape"/>
</filter>
</defs>
</svg>
